Coordinates
nRows=5
nColumns=38

# SIMM Motion File Header:
name Coordinates
datacolumns 38
datarows 5
otherdata 1
range 1.37500000000000000000 1.37900000000000000000
endheader
time	pelvis_tx	pelvis_ty	pelvis_tz	pelvis_tilt	pelvis_list	pelvis_rotation	hip_flexion_r	hip_adduction_r	hip_rotation_r	knee_angle_r	ankle_angle_r	subtalar_angle_r	mtp_angle_r	hip_flexion_l	hip_adduction_l	hip_rotation_l	knee_angle_l	ankle_angle_l	subtalar_angle_l	mtp_angle_l	lumbar_extension	lumbar_bending	lumbar_rotation	arm_flex_r	arm_add_r	arm_rot_r	elbow_flex_r	pro_sup_r	wrist_flex_r	wrist_dev_r	arm_flex_l	arm_add_l	arm_rot_l	elbow_flex_l	pro_sup_l	wrist_flex_l	wrist_dev_l
      1.37500000000000000000	      0.84571922717140346000	      0.97232072034373185000	     -0.21286297269995424000	      1.77349141992737660000	      1.10926377661409540000	     -5.18123338109198350000	    -33.54090387126845500000	     -0.20981531216292573000	      6.01939571860095680000	    -11.72346531263836200000	    -21.40610419579427100000	     -0.00000000000011177547	      0.00000000000044133293	     32.27508895196227500000	      0.99246850080820936000	     -7.29189998264970020000	    -36.45347888957812200000	      7.39348826427753990000	      0.00000000000115510671	     -0.00000000000138485941	     -7.65096154198508580000	     -0.13575969462769619000	     20.89440903782562800000	    -16.52943026711463800000	    -38.90761570997347000000	     -9.05724123143108350000	    112.84658301683002000000	    118.71988110111411000000	      0.00000000000001547521	      0.00000000000003250800	    -39.14694850590611700000	    -29.34979567093041900000	      8.00991524061220690000	     78.34256605031245600000	    106.80491859802289000000	      0.00000000000005950564	      0.00000000000002403587
      1.37599999999999990000	      0.84585692379076760000	      0.97230702379103628000	     -0.21298624276153508000	      1.79198877891549980000	      1.08824885497351560000	     -5.15448663419317390000	    -33.55953602158931700000	     -0.20485508376390171000	      5.89022466544929820000	    -12.01414007977507300000	    -21.60915073190997800000	     -0.00000000000011226352	      0.00000000000044209070	     32.12559846108342800000	      1.02501982933521240000	     -7.26176145331386550000	    -35.83715748588423400000	      7.33266270194905530000	      0.00000000000115718534	     -0.00000000000138685296	     -7.66967215663453320000	     -0.11010691066145008000	     20.94391791266967200000	    -16.48959895280748700000	    -38.88885893531452400000	     -9.08421012597582590000	    112.93009849485546000000	    118.75316192640851000000	      0.00000000000001545903	      0.00000000000003266718	    -39.19769723907369000000	    -29.40569629149534600000	      8.00225921807314400000	     78.32153898834222600000	    106.76585866243344000000	      0.00000000000005962669	      0.00000000000002422785
      1.37700000000000000000	      0.84599462041013174000	      0.97229332723834072000	     -0.21310951282311597000	      1.81048613790363080000	      1.06723393333292860000	     -5.12773988729435800000	    -33.57816817191015000000	     -0.19989485536487483000	      5.76105361229760500000	    -12.30481484691190300000	    -21.81219726802577300000	     -0.00000000000011275156	      0.00000000000044284848	     31.97610797020453800000	      1.05757115786221840000	     -7.23162292397801920000	    -35.22083608219025300000	      7.27183713962056370000	      0.00000000000115926398	     -0.00000000000138884650	     -7.68838277128399030000	     -0.08445412669519797300	     20.99342678751372300000	    -16.44976763850033000000	    -38.87010216065557700000	     -9.11117902052056120000	    113.01361397288088000000	    118.78644275170291000000	      0.00000000000001544286	      0.00000000000003282637	    -39.24844597224125700000	    -29.46159691206028300000	      7.99460319553408730000	     78.30051192637196800000	    106.72679872684400000000	      0.00000000000005974774	      0.00000000000002441983
      1.37799999999999990000	      0.84612886881163063000	      0.97226880803081261000	     -0.21323167043256075000	      1.82975458537174300000	      1.04587573988310580000	     -5.10097407759165570000	    -33.59041144586844000000	     -0.19489758395710152000	      5.63114663349111490000	    -12.60829872527525500000	    -22.02304218987015000000	     -0.00000000000011324144	      0.00000000000044362885	     31.82654451875568900000	      1.08928979319332670000	     -7.20057043170278100000	    -34.61372844977152900000	      7.21122732426285480000	      0.00000000000116133144	     -0.00000000000139079929	     -7.70824754321083820000	     -0.05899472089737842900	     21.04126358194494300000	    -16.40999195309363000000	    -38.85076335141395300000	     -9.13523847795813460000	    113.09145217822785000000	    118.81851329753484000000	      0.00000000000001542739	      0.00000000000003298431	    -39.29565898953956100000	    -29.51660967622424500000	      7.98893863006813200000	     78.27933477259979600000	    106.68874598500935000000	      0.00000000000005986823	      0.00000000000002461406
      1.37900000000000000000	      0.84625966899526428000	      0.97223346616845208000	     -0.21335271558986948000	      1.84979412131985480000	      1.02417427462403320000	     -5.07418920508505260000	    -33.59626584346411700000	     -0.18986326954057905000	      5.50050372902975850000	    -12.92459171486542100000	    -22.24168549744330300000	     -0.00000000000011373314	      0.00000000000044443182	     31.67690810673681400000	      1.12017573532854090000	     -7.16860397648812600000	    -34.01583458862791800000	      7.15083325587590400000	      0.00000000000116338774	     -0.00000000000139271132	     -7.72926647241509990000	     -0.03372869326798255000	     21.08742829596333800000	    -16.37027189658737200000	    -38.83084250758963700000	     -9.15638849828851950000	    113.16361311089636000000	    118.84937356390429000000	      0.00000000000001541263	      0.00000000000003314100	    -39.33933629096857500000	    -29.57073458398724200000	      7.98526552167529950000	     78.25800752702568300000	    106.65170043692953000000	      0.00000000000005998818	      0.00000000000002481056
